<mxfile host="app.diagrams.net" modified="2021-04-30T08:32:29.253Z" agent="5.0 (Windows NT 10.0; Win64; x64) AppleWebKit/537.36 (KHTML, like Gecko) Chrome/90.0.4430.93 Safari/537.36" etag="VkVBSImc8BILYScTeqL5" version="14.6.6" type="github">
  <diagram id="IViH13QtPrbKDEhVvIR5" name="Page-1">
    <mxGraphModel dx="1422" dy="794" grid="1" gridSize="10" guides="1" tooltips="1" connect="1" arrows="1" fold="1" page="1" pageScale="1" pageWidth="827" pageHeight="1169" math="0" shadow="0">
      <root>
        <mxCell id="0" />
        <mxCell id="1" parent="0" />
        <mxCell id="ATLWoFstqX7KM1064nTt-4" style="edgeStyle=orthogonalEdgeStyle;rounded=0;orthogonalLoop=1;jettySize=auto;html=1;entryX=0;entryY=0.5;entryDx=0;entryDy=0;exitX=1;exitY=0.5;exitDx=0;exitDy=0;" edge="1" parent="1" source="ATLWoFstqX7KM1064nTt-10" target="ATLWoFstqX7KM1064nTt-3">
          <mxGeometry relative="1" as="geometry">
            <mxPoint x="470" y="200" as="sourcePoint" />
          </mxGeometry>
        </mxCell>
        <mxCell id="ATLWoFstqX7KM1064nTt-6" style="edgeStyle=orthogonalEdgeStyle;rounded=0;orthogonalLoop=1;jettySize=auto;html=1;entryX=0;entryY=0.5;entryDx=0;entryDy=0;exitX=1;exitY=0.5;exitDx=0;exitDy=0;" edge="1" parent="1" source="ATLWoFstqX7KM1064nTt-10" target="ATLWoFstqX7KM1064nTt-5">
          <mxGeometry relative="1" as="geometry">
            <mxPoint x="500" y="330" as="sourcePoint" />
          </mxGeometry>
        </mxCell>
        <mxCell id="ATLWoFstqX7KM1064nTt-9" style="edgeStyle=orthogonalEdgeStyle;rounded=0;orthogonalLoop=1;jettySize=auto;html=1;" edge="1" parent="1" source="ATLWoFstqX7KM1064nTt-10" target="ATLWoFstqX7KM1064nTt-7">
          <mxGeometry relative="1" as="geometry">
            <mxPoint x="490" y="345" as="sourcePoint" />
          </mxGeometry>
        </mxCell>
        <mxCell id="ATLWoFstqX7KM1064nTt-11" style="edgeStyle=orthogonalEdgeStyle;rounded=0;orthogonalLoop=1;jettySize=auto;html=1;entryX=0;entryY=0.5;entryDx=0;entryDy=0;" edge="1" parent="1" source="ATLWoFstqX7KM1064nTt-1" target="ATLWoFstqX7KM1064nTt-10">
          <mxGeometry relative="1" as="geometry" />
        </mxCell>
        <mxCell id="ATLWoFstqX7KM1064nTt-1" value="main&lt;br&gt;test_smartrc_v3 -A -r 7 --lua /usr/local/bin/&lt;br&gt;scripts/smartrc_&lt;br&gt;example.lua -l 1" style="rounded=0;whiteSpace=wrap;html=1;" vertex="1" parent="1">
          <mxGeometry x="20" y="410" width="130" height="90" as="geometry" />
        </mxCell>
        <mxCell id="ATLWoFstqX7KM1064nTt-3" value="&lt;div style=&quot;background-color: rgb(255 , 255 , 255) ; font-family: &amp;#34;consolas&amp;#34; , &amp;#34;courier new&amp;#34; , monospace ; line-height: 24px&quot;&gt;&lt;font style=&quot;font-size: 12px&quot;&gt;&lt;span style=&quot;color: rgb(0 , 16 , 128)&quot;&gt;init_params&lt;/span&gt;-&amp;gt;&lt;span style=&quot;color: rgb(0 , 16 , 128)&quot;&gt;process_stream_map =&amp;nbsp;&lt;/span&gt;&lt;/font&gt;&lt;span style=&quot;font-family: &amp;#34;consolas&amp;#34; , &amp;#34;courier new&amp;#34; , monospace ; font-size: 18px&quot;&gt;cur_stream_id&lt;/span&gt;&lt;/div&gt;" style="rounded=1;whiteSpace=wrap;html=1;" vertex="1" parent="1">
          <mxGeometry x="520" y="40" width="160" height="90" as="geometry" />
        </mxCell>
        <mxCell id="ATLWoFstqX7KM1064nTt-5" value="&lt;div style=&quot;background-color: rgb(255 , 255 , 255) ; font-family: &amp;#34;consolas&amp;#34; , &amp;#34;courier new&amp;#34; , monospace ; line-height: 24px&quot;&gt;&lt;div style=&quot;font-family: &amp;#34;consolas&amp;#34; , &amp;#34;courier new&amp;#34; , monospace ; line-height: 24px&quot;&gt;&lt;div&gt;&lt;font style=&quot;font-size: 10px&quot;&gt;&lt;span style=&quot;color: rgb(121 , 94 , 38)&quot;&gt;strncpy&lt;/span&gt;(&lt;span style=&quot;color: rgb(0 , 16 , 128)&quot;&gt;smartrc_params&lt;/span&gt;.&lt;span style=&quot;color: rgb(0 , 16 , 128)&quot;&gt;lua_&lt;/span&gt;&lt;/font&gt;&lt;/div&gt;&lt;div&gt;&lt;font style=&quot;font-size: 10px&quot;&gt;&lt;span style=&quot;color: rgb(0 , 16 , 128)&quot;&gt;file&lt;/span&gt;&lt;/font&gt;&lt;font style=&quot;font-size: 10px&quot;&gt;[&lt;span style=&quot;color: rgb(0 , 16 , 128)&quot;&gt;cur_stream_id&lt;/span&gt;].&lt;/font&gt;&lt;/div&gt;&lt;div&gt;&lt;font style=&quot;font-size: 10px&quot;&gt;path,&amp;nbsp;&lt;/font&gt;&lt;span style=&quot;font-size: 10px&quot;&gt;optarg,&lt;br&gt;&lt;/span&gt;&lt;/div&gt;&lt;/div&gt;&lt;/div&gt;" style="rounded=1;whiteSpace=wrap;html=1;" vertex="1" parent="1">
          <mxGeometry x="520" y="200" width="190" height="100" as="geometry" />
        </mxCell>
        <mxCell id="ATLWoFstqX7KM1064nTt-7" value="&lt;div style=&quot;background-color: rgb(255 , 255 , 255) ; font-family: &amp;#34;consolas&amp;#34; , &amp;#34;courier new&amp;#34; , monospace ; line-height: 24px&quot;&gt;&lt;div style=&quot;font-family: &amp;#34;consolas&amp;#34; , &amp;#34;courier new&amp;#34; , monospace ; line-height: 24px&quot;&gt;&lt;div&gt;&lt;div style=&quot;font-family: &amp;#34;consolas&amp;#34; , &amp;#34;courier new&amp;#34; , monospace ; line-height: 24px&quot;&gt;&lt;font style=&quot;font-size: 12px&quot;&gt;&lt;span style=&quot;color: rgb(0 , 16 , 128)&quot;&gt;smartrc_params&lt;/span&gt;.&lt;span style=&quot;color: rgb(0 , 16 , 128)&quot;&gt;lua_file_flags&lt;/span&gt;&amp;nbsp;&lt;/font&gt;&lt;/div&gt;&lt;div style=&quot;font-family: &amp;#34;consolas&amp;#34; , &amp;#34;courier new&amp;#34; , monospace ; line-height: 24px&quot;&gt;&lt;font size=&quot;3&quot;&gt;|=&amp;nbsp;(&lt;span style=&quot;color: rgb(9 , 134 , 88)&quot;&gt;1&lt;/span&gt;&amp;nbsp;&amp;lt;&amp;lt;&amp;nbsp;&lt;span style=&quot;color: rgb(0 , 16 , 128)&quot;&gt;cur_stream_id&lt;/span&gt;);&lt;/font&gt;&lt;/div&gt;&lt;/div&gt;&lt;/div&gt;&lt;/div&gt;" style="rounded=1;whiteSpace=wrap;html=1;" vertex="1" parent="1">
          <mxGeometry x="520" y="340" width="220" height="120" as="geometry" />
        </mxCell>
        <mxCell id="ATLWoFstqX7KM1064nTt-10" value="init_param" style="rounded=0;whiteSpace=wrap;html=1;" vertex="1" parent="1">
          <mxGeometry x="200" y="290" width="130" height="90" as="geometry" />
        </mxCell>
      </root>
    </mxGraphModel>
  </diagram>
</mxfile>
